<?xml version="1.0" encoding="UTF-8" standalone="no"?>
<!DOCTYPE svg PUBLIC "-//W3C//DTD SVG 1.1//EN"
 "http://www.w3.org/Graphics/SVG/1.1/DTD/svg11.dtd">
<!-- Generated by graphviz version 2.40.1 (20161225.0304)
 -->
<!-- Title: Returns di&#45;graph Pages: 1 -->
<svg width="360pt" height="653pt"
 viewBox="0.00 0.00 360.00 653.15" xmlns="http://www.w3.org/2000/svg" xmlns:xlink="http://www.w3.org/1999/xlink">
<g id="graph0" class="graph" transform="scale(.7367 .7367) rotate(0) translate(4 882.5427)">
<title>Returns di&#45;graph</title>
<polygon fill="#ffffff" stroke="transparent" points="-4,4 -4,-882.5427 484.6368,-882.5427 484.6368,4 -4,4"/>
<text text-anchor="middle" x="240.3184" y="-22.8" font-family="Times,serif" font-size="14.00" fill="#000000">return di&#45;graph</text>
<text text-anchor="middle" x="240.3184" y="-7.8" font-family="Times,serif" font-size="14.00" fill="#000000">(transit times are median days)</text>
<!-- PHL2 -->
<g id="node1" class="node">
<title>PHL2</title>
<ellipse fill="#cf0989" stroke="#000000" cx="241.7487" cy="-827.0969" rx="31.6951" ry="31.6951"/>
<text text-anchor="middle" x="241.7487" y="-823.3969" font-family="Times,serif" font-size="14.00" fill="#ffffff">PHL2</text>
</g>
<!-- SL+IND3 -->
<g id="node3" class="node">
<title>SL+IND3</title>
<ellipse fill="#cf0989" stroke="#000000" cx="427.2412" cy="-618.0969" rx="46.2806" ry="46.2806"/>
<ellipse fill="none" stroke="#000000" cx="427.2412" cy="-618.0969" rx="50.2922" ry="50.2922"/>
<text text-anchor="middle" x="427.2412" y="-614.3969" font-family="Times,serif" font-size="14.00" fill="#ffffff">SL+IND3</text>
</g>
<!-- PHL2&#45;&gt;SL+IND3 -->
<g id="edge17" class="edge">
<title>PHL2&#45;&gt;SL+IND3</title>
<path fill="none" stroke="#cf0989" stroke-width="2" d="M268.8833,-809.8387C298.1399,-790.8873 342.3422,-761.1519 355.8456,-746.0969 374.9785,-724.7654 391.0941,-697.4322 403.1446,-673.5052"/>
<polygon fill="#cf0989" stroke="#cf0989" stroke-width="2" points="406.2902,-675.0397 407.5618,-664.5214 400.0085,-671.951 406.2902,-675.0397"/>
<text text-anchor="middle" x="325.3456" y="-808.8969" font-family="Times,serif" font-size="14.00" fill="#cf0989">3.0 days </text>
<text text-anchor="middle" x="325.3456" y="-793.8969" font-family="Times,serif" font-size="14.00" fill="#cf0989">(N=16930)</text>
</g>
<!-- SL+PHL2 -->
<g id="node4" class="node">
<title>SL+PHL2</title>
<ellipse fill="#c0c0c0" stroke="#000000" cx="427.2412" cy="-827.0969" rx="47.3958" ry="47.3958"/>
<ellipse fill="none" stroke="#000000" cx="427.2412" cy="-827.0969" rx="51.3916" ry="51.3916"/>
<text text-anchor="middle" x="427.2412" y="-823.3969" font-family="Times,serif" font-size="14.00" fill="#ffffff">SL+PHL2</text>
</g>
<!-- PHL2&#45;&gt;SL+PHL2 -->
<g id="edge18" class="edge">
<title>PHL2&#45;&gt;SL+PHL2</title>
<path fill="none" stroke="#cf0989" stroke-width="2" d="M273.636,-827.0969C298.7632,-827.0969 334.5608,-827.0969 365.2774,-827.0969"/>
<polygon fill="#cf0989" stroke="#cf0989" stroke-width="2" points="365.4768,-830.597 375.4768,-827.0969 365.4768,-823.597 365.4768,-830.597"/>
<text text-anchor="middle" x="325.3456" y="-845.8969" font-family="Times,serif" font-size="14.00" fill="#cf0989">0.0 days </text>
<text text-anchor="middle" x="325.3456" y="-830.8969" font-family="Times,serif" font-size="14.00" fill="#cf0989">(N=394)</text>
</g>
<!-- RNO2 -->
<g id="node2" class="node">
<title>RNO2</title>
<ellipse fill="#a03f9b" stroke="#000000" cx="241.7487" cy="-324.0969" rx="33.5952" ry="33.5952"/>
<text text-anchor="middle" x="241.7487" y="-320.3969" font-family="Times,serif" font-size="14.00" fill="#ffffff">RNO2</text>
</g>
<!-- SL+RNO2 -->
<g id="node5" class="node">
<title>SL+RNO2</title>
<ellipse fill="#a03f9b" stroke="#000000" cx="427.2412" cy="-239.0969" rx="49.2992" ry="49.2992"/>
<ellipse fill="none" stroke="#000000" cx="427.2412" cy="-239.0969" rx="53.2914" ry="53.2914"/>
<text text-anchor="middle" x="427.2412" y="-235.3969" font-family="Times,serif" font-size="14.00" fill="#ffffff">SL+RNO2</text>
</g>
<!-- RNO2&#45;&gt;SL+RNO2 -->
<g id="edge19" class="edge">
<title>RNO2&#45;&gt;SL+RNO2</title>
<path fill="none" stroke="#a03f9b" stroke-width="2" d="M272.8326,-310.4446C295.8256,-300.2872 327.871,-286.0078 355.8456,-273.0969 360.4032,-270.9934 365.1153,-268.7973 369.8448,-266.5778"/>
<polygon fill="#a03f9b" stroke="#a03f9b" stroke-width="2" points="371.3711,-269.7278 378.9253,-262.2992 368.3873,-263.3955 371.3711,-269.7278"/>
<text text-anchor="middle" x="325.3456" y="-318.8969" font-family="Times,serif" font-size="14.00" fill="#a03f9b">2.0 days </text>
<text text-anchor="middle" x="325.3456" y="-303.8969" font-family="Times,serif" font-size="14.00" fill="#a03f9b">(N=13788)</text>
</g>
<!-- postal
possession
scan -->
<g id="node6" class="node">
<title>postal
possession
scan</title>
<ellipse fill="#333366" stroke="#000000" cx="56.3259" cy="-443.0969" rx="52.1647" ry="52.1647"/>
<ellipse fill="none" stroke="#000000" cx="56.3259" cy="-443.0969" rx="56.1523" ry="56.1523"/>
<text text-anchor="middle" x="56.3259" y="-454.3969" font-family="Times,serif" font-size="14.00" fill="#f7f7f7">postal</text>
<text text-anchor="middle" x="56.3259" y="-439.3969" font-family="Times,serif" font-size="14.00" fill="#f7f7f7">possession</text>
<text text-anchor="middle" x="56.3259" y="-424.3969" font-family="Times,serif" font-size="14.00" fill="#f7f7f7">scan</text>
</g>
<!-- postal
possession
scan&#45;&gt;PHL2 -->
<g id="edge8" class="edge">
<title>postal
possession
scan&#45;&gt;PHL2</title>
<path fill="none" stroke="#cf0989" stroke-width="2" d="M65.0254,-498.8441C77.8015,-575.5458 103.1243,-708.7281 130.6518,-749.0969 148.7823,-775.6851 179.1813,-796.1017 203.6017,-809.3656"/>
<polygon fill="#cf0989" stroke="#cf0989" stroke-width="2" points="202.1482,-812.5553 212.6303,-814.0968 205.3973,-806.355 202.1482,-812.5553"/>
<text text-anchor="middle" x="159.6518" y="-817.8969" font-family="Times,serif" font-size="14.00" fill="#cf0989">3.0 days </text>
<text text-anchor="middle" x="159.6518" y="-802.8969" font-family="Times,serif" font-size="14.00" fill="#cf0989">(n=15658)</text>
</g>
<!-- postal
possession
scan&#45;&gt;RNO2 -->
<g id="edge9" class="edge">
<title>postal
possession
scan&#45;&gt;RNO2</title>
<path fill="none" stroke="#a03f9b" stroke-width="2" d="M100.3647,-407.6559C110.1446,-400.2596 120.5969,-392.7078 130.6518,-386.0969 153.7449,-370.9134 180.8042,-355.7608 202.4357,-344.2362"/>
<polygon fill="#a03f9b" stroke="#a03f9b" stroke-width="2" points="204.1388,-347.2949 211.3466,-339.5297 200.8696,-341.1052 204.1388,-347.2949"/>
<text text-anchor="middle" x="159.6518" y="-404.8969" font-family="Times,serif" font-size="14.00" fill="#a03f9b">4.0 days </text>
<text text-anchor="middle" x="159.6518" y="-389.8969" font-family="Times,serif" font-size="14.00" fill="#a03f9b">(n=4305)</text>
</g>
<!-- ATL3 -->
<g id="node7" class="node">
<title>ATL3</title>
<ellipse fill="none" stroke="#000000" cx="241.7487" cy="-745.0969" rx="32.4942" ry="32.4942"/>
<text text-anchor="middle" x="241.7487" y="-741.3969" font-family="Times,serif" font-size="14.00" fill="#000000">ATL3</text>
</g>
<!-- postal
possession
scan&#45;&gt;ATL3 -->
<g id="edge1" class="edge">
<title>postal
possession
scan&#45;&gt;ATL3</title>
<path fill="none" stroke="#000000" d="M65.2434,-498.7841C75.0181,-546.3189 94.3916,-614.6379 130.6518,-664.0969 149.6739,-690.043 179.4612,-711.1209 203.4054,-725.2646"/>
<polygon fill="#000000" stroke="#000000" points="201.8452,-728.4046 212.2615,-730.3416 205.3266,-722.3317 201.8452,-728.4046"/>
<text text-anchor="middle" x="159.6518" y="-733.8969" font-family="Times,serif" font-size="14.00" fill="#000000">3.0 days </text>
<text text-anchor="middle" x="159.6518" y="-718.8969" font-family="Times,serif" font-size="14.00" fill="#000000">(n=4476)</text>
</g>
<!-- CVG1 -->
<g id="node8" class="node">
<title>CVG1</title>
<ellipse fill="none" stroke="#000000" cx="241.7487" cy="-661.0969" rx="33.5952" ry="33.5952"/>
<text text-anchor="middle" x="241.7487" y="-657.3969" font-family="Times,serif" font-size="14.00" fill="#000000">CVG1</text>
</g>
<!-- postal
possession
scan&#45;&gt;CVG1 -->
<g id="edge2" class="edge">
<title>postal
possession
scan&#45;&gt;CVG1</title>
<path fill="none" stroke="#000000" stroke-dasharray="5,2" d="M77.3463,-495.5389C90.0908,-523.2194 108.2298,-556.6273 130.6518,-582.0969 151.2225,-605.4635 179.9851,-625.6747 203.0901,-639.8039"/>
<polygon fill="#000000" stroke="#000000" points="201.58,-642.9787 211.9598,-645.1023 205.1698,-636.9692 201.58,-642.9787"/>
<text text-anchor="middle" x="159.6518" y="-648.8969" font-family="Times,serif" font-size="14.00" fill="#000000">3.0 days </text>
<text text-anchor="middle" x="159.6518" y="-633.8969" font-family="Times,serif" font-size="14.00" fill="#000000">(n=366)</text>
</g>
<!-- DFW4 -->
<g id="node9" class="node">
<title>DFW4</title>
<ellipse fill="none" stroke="#000000" cx="241.7487" cy="-73.0969" rx="35.194" ry="35.194"/>
<text text-anchor="middle" x="241.7487" y="-69.3969" font-family="Times,serif" font-size="14.00" fill="#000000">DFW4</text>
</g>
<!-- postal
possession
scan&#45;&gt;DFW4 -->
<g id="edge3" class="edge">
<title>postal
possession
scan&#45;&gt;DFW4</title>
<path fill="none" stroke="#000000" d="M65.8979,-387.5264C79.2639,-314.4785 104.7983,-190.9839 130.6518,-153.0969 148.2926,-127.2452 177.1789,-106.8222 201.0748,-93.0828"/>
<polygon fill="#000000" stroke="#000000" points="202.9149,-96.0644 209.955,-88.1469 199.514,-89.9461 202.9149,-96.0644"/>
<text text-anchor="middle" x="159.6518" y="-171.8969" font-family="Times,serif" font-size="14.00" fill="#000000">2.0 days </text>
<text text-anchor="middle" x="159.6518" y="-156.8969" font-family="Times,serif" font-size="14.00" fill="#000000">(n=2657)</text>
</g>
<!-- HVN1 -->
<g id="node10" class="node">
<title>HVN1</title>
<ellipse fill="none" stroke="#000000" cx="241.7487" cy="-575.0969" rx="34.394" ry="34.394"/>
<text text-anchor="middle" x="241.7487" y="-571.3969" font-family="Times,serif" font-size="14.00" fill="#000000">HVN1</text>
</g>
<!-- postal
possession
scan&#45;&gt;HVN1 -->
<g id="edge4" class="edge">
<title>postal
possession
scan&#45;&gt;HVN1</title>
<path fill="none" stroke="#000000" d="M96.1254,-483.2119C106.903,-493.1744 118.8611,-503.4629 130.6518,-512.0969 152.8795,-528.3735 179.7014,-543.6911 201.4217,-555.1463"/>
<polygon fill="#000000" stroke="#000000" points="199.9031,-558.3014 210.3899,-559.8107 203.1331,-552.0912 199.9031,-558.3014"/>
<text text-anchor="middle" x="159.6518" y="-566.8969" font-family="Times,serif" font-size="14.00" fill="#000000">2.0 days </text>
<text text-anchor="middle" x="159.6518" y="-551.8969" font-family="Times,serif" font-size="14.00" fill="#000000">(n=764)</text>
</g>
<!-- IND3 -->
<g id="node11" class="node">
<title>IND3</title>
<ellipse fill="none" stroke="#000000" cx="241.7487" cy="-492.0969" rx="30.5947" ry="30.5947"/>
<text text-anchor="middle" x="241.7487" y="-488.3969" font-family="Times,serif" font-size="14.00" fill="#000000">IND3</text>
</g>
<!-- postal
possession
scan&#45;&gt;IND3 -->
<g id="edge5" class="edge">
<title>postal
possession
scan&#45;&gt;IND3</title>
<path fill="none" stroke="#000000" d="M110.956,-457.5335C140.3207,-465.2934 175.8545,-474.6836 202.4692,-481.7168"/>
<polygon fill="#000000" stroke="#000000" points="201.639,-485.1175 212.2013,-484.2887 203.4275,-478.3499 201.639,-485.1175"/>
<text text-anchor="middle" x="159.6518" y="-496.8969" font-family="Times,serif" font-size="14.00" fill="#000000">3.0 days </text>
<text text-anchor="middle" x="159.6518" y="-481.8969" font-family="Times,serif" font-size="14.00" fill="#000000">(n=2874)</text>
</g>
<!-- LAX6 -->
<g id="node12" class="node">
<title>LAX6</title>
<ellipse fill="none" stroke="#000000" cx="241.7487" cy="-239.0969" rx="33.2948" ry="33.2948"/>
<text text-anchor="middle" x="241.7487" y="-235.3969" font-family="Times,serif" font-size="14.00" fill="#000000">LAX6</text>
</g>
<!-- postal
possession
scan&#45;&gt;LAX6 -->
<g id="edge6" class="edge">
<title>postal
possession
scan&#45;&gt;LAX6</title>
<path fill="none" stroke="#000000" d="M80.6907,-392.2454C93.5455,-368.4749 110.7784,-340.7161 130.6518,-319.0969 152.0462,-295.823 181.1992,-275.138 204.2733,-260.6344"/>
<polygon fill="#000000" stroke="#000000" points="206.1131,-263.6119 212.7902,-255.3859 202.4406,-257.6525 206.1131,-263.6119"/>
<text text-anchor="middle" x="159.6518" y="-337.8969" font-family="Times,serif" font-size="14.00" fill="#000000">2.0 days </text>
<text text-anchor="middle" x="159.6518" y="-322.8969" font-family="Times,serif" font-size="14.00" fill="#000000">(n=5196)</text>
</g>
<!-- ORD2 -->
<g id="node13" class="node">
<title>ORD2</title>
<ellipse fill="none" stroke="#000000" cx="241.7487" cy="-410.0969" rx="33.5952" ry="33.5952"/>
<text text-anchor="middle" x="241.7487" y="-406.3969" font-family="Times,serif" font-size="14.00" fill="#000000">ORD2</text>
</g>
<!-- postal
possession
scan&#45;&gt;ORD2 -->
<g id="edge7" class="edge">
<title>postal
possession
scan&#45;&gt;ORD2</title>
<path fill="none" stroke="#000000" d="M111.9589,-433.1958C139.6459,-428.2683 172.6151,-422.4007 198.3963,-417.8124"/>
<polygon fill="#000000" stroke="#000000" points="199.0219,-421.2561 208.2539,-416.058 197.7953,-414.3644 199.0219,-421.2561"/>
<text text-anchor="middle" x="159.6518" y="-448.8969" font-family="Times,serif" font-size="14.00" fill="#000000">2.0 days </text>
<text text-anchor="middle" x="159.6518" y="-433.8969" font-family="Times,serif" font-size="14.00" fill="#000000">(n=2629)</text>
</g>
<!-- SFO1 -->
<g id="node14" class="node">
<title>SFO1</title>
<ellipse fill="none" stroke="#000000" cx="241.7487" cy="-157.0969" rx="31.3957" ry="31.3957"/>
<text text-anchor="middle" x="241.7487" y="-153.3969" font-family="Times,serif" font-size="14.00" fill="#000000">SFO1</text>
</g>
<!-- postal
possession
scan&#45;&gt;SFO1 -->
<g id="edge10" class="edge">
<title>postal
possession
scan&#45;&gt;SFO1</title>
<path fill="none" stroke="#000000" d="M67.0954,-387.4499C77.6798,-343.5795 97.2253,-282.5898 130.6518,-238.0969 150.3574,-211.8674 180.9266,-190.4546 205.0144,-176.2469"/>
<polygon fill="#000000" stroke="#000000" points="206.9565,-179.1681 213.8928,-171.1595 203.4762,-173.0945 206.9565,-179.1681"/>
<text text-anchor="middle" x="159.6518" y="-256.8969" font-family="Times,serif" font-size="14.00" fill="#000000">2.0 days </text>
<text text-anchor="middle" x="159.6518" y="-241.8969" font-family="Times,serif" font-size="14.00" fill="#000000">(n=1193)</text>
</g>
<!-- ATL3&#45;&gt;SL+IND3 -->
<g id="edge11" class="edge">
<title>ATL3&#45;&gt;SL+IND3</title>
<path fill="none" stroke="#000000" stroke-dasharray="5,2" d="M270.4794,-729.336C303.6284,-711.1364 353.8741,-683.4974 355.8456,-682.0969 365.1869,-675.4609 374.6668,-667.7662 383.5352,-660.0621"/>
<polygon fill="#000000" stroke="#000000" points="385.9869,-662.5661 391.1524,-653.3157 381.3457,-657.3258 385.9869,-662.5661"/>
<text text-anchor="middle" x="325.3456" y="-732.8969" font-family="Times,serif" font-size="14.00" fill="#000000">3.0 days </text>
<text text-anchor="middle" x="325.3456" y="-717.8969" font-family="Times,serif" font-size="14.00" fill="#000000">(N=53)</text>
</g>
<!-- CVG1&#45;&gt;SL+IND3 -->
<g id="edge12" class="edge">
<title>CVG1&#45;&gt;SL+IND3</title>
<path fill="none" stroke="#000000" stroke-dasharray="5,2" d="M274.911,-653.4093C300.8636,-647.3932 337.6104,-638.8747 368.5099,-631.7117"/>
<polygon fill="#000000" stroke="#000000" points="369.3644,-635.1065 378.3157,-629.4386 367.7836,-628.2873 369.3644,-635.1065"/>
<text text-anchor="middle" x="325.3456" y="-667.8969" font-family="Times,serif" font-size="14.00" fill="#000000">20.5 days </text>
<text text-anchor="middle" x="325.3456" y="-652.8969" font-family="Times,serif" font-size="14.00" fill="#000000">(N=2)</text>
</g>
<!-- HVN1&#45;&gt;SL+IND3 -->
<g id="edge13" class="edge">
<title>HVN1&#45;&gt;SL+IND3</title>
<path fill="none" stroke="#000000" stroke-dasharray="5,2" d="M275.34,-582.8839C301.2468,-588.8895 337.7222,-597.345 368.4367,-604.4651"/>
<polygon fill="#000000" stroke="#000000" points="367.6536,-607.8763 378.1857,-606.7251 369.2345,-601.0571 367.6536,-607.8763"/>
<text text-anchor="middle" x="325.3456" y="-619.8969" font-family="Times,serif" font-size="14.00" fill="#000000">4.0 days </text>
<text text-anchor="middle" x="325.3456" y="-604.8969" font-family="Times,serif" font-size="14.00" fill="#000000">(N=261)</text>
</g>
<!-- IND3&#45;&gt;SL+IND3 -->
<g id="edge14" class="edge">
<title>IND3&#45;&gt;SL+IND3</title>
<path fill="none" stroke="#000000" stroke-dasharray="5,2" d="M269.5469,-504.9289C293.3299,-516.4308 328.0274,-534.4759 355.8456,-554.0969 365.2093,-560.7014 374.6994,-568.3814 383.5709,-576.0811"/>
<polygon fill="#000000" stroke="#000000" points="381.3819,-578.8177 391.1892,-582.826 386.0221,-573.5766 381.3819,-578.8177"/>
<text text-anchor="middle" x="325.3456" y="-572.8969" font-family="Times,serif" font-size="14.00" fill="#000000">1.0 days </text>
<text text-anchor="middle" x="325.3456" y="-557.8969" font-family="Times,serif" font-size="14.00" fill="#000000">(N=164)</text>
</g>
<!-- LAX6&#45;&gt;SL+RNO2 -->
<g id="edge15" class="edge">
<title>LAX6&#45;&gt;SL+RNO2</title>
<path fill="none" stroke="#000000" d="M274.911,-239.0969C299.4271,-239.0969 333.5755,-239.0969 363.328,-239.0969"/>
<polygon fill="#000000" stroke="#000000" points="363.6455,-242.597 373.6455,-239.0969 363.6455,-235.597 363.6455,-242.597"/>
<text text-anchor="middle" x="325.3456" y="-257.8969" font-family="Times,serif" font-size="14.00" fill="#000000">4.0 days </text>
<text text-anchor="middle" x="325.3456" y="-242.8969" font-family="Times,serif" font-size="14.00" fill="#000000">(N=1001)</text>
</g>
<!-- ORD2&#45;&gt;SL+IND3 -->
<g id="edge16" class="edge">
<title>ORD2&#45;&gt;SL+IND3</title>
<path fill="none" stroke="#000000" stroke-dasharray="5,2" d="M272.4182,-424.4889C297.3112,-437.3616 332.0605,-458.1775 355.8456,-484.0969 376.4807,-506.5836 393.0544,-536.1397 405.0195,-561.771"/>
<polygon fill="#000000" stroke="#000000" points="401.8963,-563.3584 409.2181,-571.0161 408.2698,-560.4638 401.8963,-563.3584"/>
<text text-anchor="middle" x="325.3456" y="-502.8969" font-family="Times,serif" font-size="14.00" fill="#000000">2.0 days </text>
<text text-anchor="middle" x="325.3456" y="-487.8969" font-family="Times,serif" font-size="14.00" fill="#000000">(N=38)</text>
</g>
<!-- SFO1&#45;&gt;SL+RNO2 -->
<g id="edge20" class="edge">
<title>SFO1&#45;&gt;SL+RNO2</title>
<path fill="none" stroke="#000000" d="M270.984,-168.9603C294.1296,-178.4573 327.2141,-192.2651 355.8456,-205.0969 360.4262,-207.1498 365.1547,-209.3098 369.8955,-211.5045"/>
<polygon fill="#000000" stroke="#000000" points="368.4496,-214.6921 378.9916,-215.7487 371.4095,-208.3486 368.4496,-214.6921"/>
<text text-anchor="middle" x="325.3456" y="-223.8969" font-family="Times,serif" font-size="14.00" fill="#000000">4.0 days </text>
<text text-anchor="middle" x="325.3456" y="-208.8969" font-family="Times,serif" font-size="14.00" fill="#000000">(N=786)</text>
</g>
</g>
</svg>
